<svg xmlns="http://www.w3.org/2000/svg" viewBox="0 0 960 640" font-family="'Apple SD Gothic Neo','Malgun Gothic','PingFang SC','Microsoft YaHei',sans-serif">
  <title>go-scout 검색 및 동기화 라이프사이클</title>
  <defs>
    <marker id="arrow" viewBox="0 0 10 10" refX="5" refY="5" markerWidth="7" markerHeight="7" orient="auto-start-reverse">
      <path d="M 0 0 L 10 5 L 0 10 z" fill="#4a4a4a"/>
    </marker>
  </defs>
  <text x="480" y="28" text-anchor="middle" font-size="18" fill="#3a3a3a">go-scout 검색과 동기화 라이프사이클</text>

  <!-- 사이드바: 쓰기 동기화 -->
  <rect x="40" y="48" width="250" height="452" rx="8" fill="#f7f6f2" stroke="#4a4a4a" stroke-width="2" stroke-dasharray="6 4"/>
  <text x="165" y="74" text-anchor="middle" font-size="14" font-weight="bold" fill="#3a3a3a">쓰기 동기화 경로</text>
  <rect x="56" y="90" width="218" height="44" rx="6" fill="#e3e0d6" stroke="#4a4a4a" stroke-width="2"/>
  <text x="165" y="108" text-anchor="middle" font-size="12" fill="#3a3a3a">ModelObserver 이벤트 포착</text>
  <text x="165" y="124" text-anchor="middle" font-size="11" fill="#555">Saved · Deleted · Restored</text>
  <line x1="165" y1="134" x2="165" y2="152" stroke="#4a4a4a" stroke-width="2" marker-end="url(#arrow)"/>
  <rect x="56" y="154" width="218" height="44" rx="6" fill="#e3e0d6" stroke="#4a4a4a" stroke-width="2"/>
  <text x="165" y="172" text-anchor="middle" font-size="12" fill="#3a3a3a">큐 등록 / 동기 실행</text>
  <text x="165" y="188" text-anchor="middle" font-size="11" fill="#555">Queue.PushNamed（SCOUT_QUEUE）</text>
  <line x1="165" y1="198" x2="165" y2="216" stroke="#4a4a4a" stroke-width="2" marker-end="url(#arrow)"/>
  <rect x="56" y="218" width="218" height="44" rx="6" fill="#e3e0d6" stroke="#4a4a4a" stroke-width="2"/>
  <text x="165" y="236" text-anchor="middle" font-size="12" fill="#3a3a3a">인덱스 동기화</text>
  <text x="165" y="252" text-anchor="middle" font-size="11" fill="#555">engine.Update / Delete + __soft_deleted</text>
  <line x1="165" y1="262" x2="165" y2="280" stroke="#4a4a4a" stroke-width="2" marker-end="url(#arrow)"/>
  <rect x="56" y="282" width="218" height="44" rx="6" fill="#e3e0d6" stroke="#4a4a4a" stroke-width="2"/>
  <text x="165" y="300" text-anchor="middle" font-size="12" fill="#3a3a3a">EventBus 이벤트 발행</text>
  <text x="165" y="316" text-anchor="middle" font-size="11" fill="#555">models_imported · models_flushed</text>
  <line x1="165" y1="326" x2="165" y2="344" stroke="#4a4a4a" stroke-width="2" marker-end="url(#arrow)"/>
  <rect x="56" y="346" width="218" height="44" rx="6" fill="#e3e0d6" stroke="#4a4a4a" stroke-width="2"/>
  <text x="165" y="364" text-anchor="middle" font-size="12" fill="#3a3a3a">일괄 임포트</text>
  <text x="165" y="380" text-anchor="middle" font-size="11" fill="#555">MakeAllSearchable 분할（기본 500）</text>
  <text x="165" y="426" text-anchor="middle" font-size="11" fill="#555">큐 미활성 시 동기 실행</text>
  <text x="165" y="444" text-anchor="middle" font-size="11" fill="#555">（runInline 동기 폴백 및 경고）</text>

  <!-- 메인 흐름: 검색 -->
  <rect x="340" y="48" width="300" height="44" rx="22" fill="#d8d4c8" stroke="#4a4a4a" stroke-width="2"/>
  <text x="490" y="74" text-anchor="middle" font-size="14" fill="#3a3a3a">입구: Searchable(model, source)</text>
  <line x1="490" y1="92" x2="490" y2="112" stroke="#4a4a4a" stroke-width="2" marker-end="url(#arrow)"/>
  <rect x="340" y="114" width="300" height="48" rx="6" fill="#f4f3ee" stroke="#4a4a4a" stroke-width="2"/>
  <text x="490" y="136" text-anchor="middle" font-size="14" fill="#3a3a3a">쿼리 구성（*scout.Builder）</text>
  <text x="490" y="154" text-anchor="middle" font-size="11" fill="#555">Query · Where · OrderBy · WithTrashed</text>
  <line x1="490" y1="162" x2="490" y2="182" stroke="#4a4a4a" stroke-width="2" marker-end="url(#arrow)"/>
  <rect x="340" y="184" width="300" height="48" rx="6" fill="#f4f3ee" stroke="#4a4a4a" stroke-width="2"/>
  <text x="490" y="206" text-anchor="middle" font-size="14" fill="#3a3a3a">엔진 분기</text>
  <text x="490" y="224" text-anchor="middle" font-size="11" fill="#555">Manager.Driver(name) 지연 생성·캐시</text>
  <line x1="490" y1="232" x2="490" y2="252" stroke="#4a4a4a" stroke-width="2" marker-end="url(#arrow)"/>
  <rect x="340" y="254" width="300" height="48" rx="6" fill="#f4f3ee" stroke="#4a4a4a" stroke-width="2"/>
  <text x="490" y="276" text-anchor="middle" font-size="14" fill="#3a3a3a">검색 실행</text>
  <text x="490" y="294" text-anchor="middle" font-size="11" fill="#555">engine.Search / Paginate（REST · SQL · 메모리）</text>
  <line x1="490" y1="302" x2="490" y2="322" stroke="#4a4a4a" stroke-width="2" marker-end="url(#arrow)"/>
  <rect x="340" y="324" width="300" height="48" rx="6" fill="#f4f3ee" stroke="#4a4a4a" stroke-width="2"/>
  <text x="490" y="346" text-anchor="middle" font-size="14" fill="#3a3a3a">응답 파싱（scout.Result）</text>
  <text x="490" y="364" text-anchor="middle" font-size="11" fill="#555">Hits · Total · Aggregations · Raw</text>
  <line x1="490" y1="372" x2="490" y2="392" stroke="#4a4a4a" stroke-width="2" marker-end="url(#arrow)"/>

  <!-- 결정 다이아몬드 -->
  <polygon points="490,394 620,426 490,458 360,426" fill="#ebe9e3" stroke="#4a4a4a" stroke-width="2"/>
  <text x="490" y="424" text-anchor="middle" font-size="14" fill="#3a3a3a">모델 되채움 필요?</text>
  <text x="490" y="442" text-anchor="middle" font-size="11" fill="#555">Get / Paginate / First</text>

  <!-- 아니오: 직접 반환 -->
  <line x1="620" y1="426" x2="668" y2="426" stroke="#4a4a4a" stroke-width="2" marker-end="url(#arrow)"/>
  <text x="644" y="416" text-anchor="middle" font-size="11" fill="#555">아니오</text>
  <rect x="678" y="402" width="242" height="48" rx="6" fill="#e3e0d6" stroke="#4a4a4a" stroke-width="2"/>
  <text x="799" y="424" text-anchor="middle" font-size="12" fill="#3a3a3a">직접 반환（모델 로드 안 함）</text>
  <text x="799" y="442" text-anchor="middle" font-size="11" fill="#555">Keys · GetAggregations · PaginateRaw</text>

  <!-- 예: 모델 되채움 -->
  <line x1="490" y1="458" x2="490" y2="486" stroke="#4a4a4a" stroke-width="2" marker-end="url(#arrow)"/>
  <text x="500" y="478" font-size="11" fill="#555">예</text>
  <rect x="340" y="488" width="300" height="64" rx="6" fill="#e3e0d6" stroke="#4a4a4a" stroke-width="2"/>
  <text x="490" y="510" text-anchor="middle" font-size="14" fill="#3a3a3a">모델 되채움</text>
  <text x="490" y="530" text-anchor="middle" font-size="11" fill="#555">MapIDs → Source.ByIDs → attachMeta</text>
  <text x="490" y="546" text-anchor="middle" font-size="11" fill="#555">KeyString 정렬 · 엔진 반환 순서 유지</text>
  <line x1="490" y1="552" x2="490" y2="572" stroke="#4a4a4a" stroke-width="2" marker-end="url(#arrow)"/>
  <rect x="340" y="574" width="300" height="44" rx="22" fill="#d8d4c8" stroke="#4a4a4a" stroke-width="2"/>
  <text x="490" y="600" text-anchor="middle" font-size="14" fill="#3a3a3a">Models / ResultItem 반환</text>
</svg>
